{"title":"Spent (2017) HDRip 530 MB H264 MPEG-4 AAC Spy1984","magnet":"magnet:?xt=urn:btih:ff32309c24db64f0140067c3c19cdbea5cc0b280&dn=Spent+%282017%29+HDRip+530+MB+H264+MPEG-4+AAC+Spy1984&tr=udp%3A%2F%2Ftracker.leechers-paradise.org%3A6969&tr=udp%3A%2F%2Fzer0day.ch%3A1337&tr=udp%3A%2F%2Fopen.demonii.com%3A1337&tr=udp%3A%2F%2Ftracker.coppersurfer.tk%3A6969&tr=udp%3A%2F%2Fexodus.desync.com%3A6969","uploader":"spy1984","categoryP":"video","categoryS":"movies","size":"556259031","seeders":"0","leechers":"0","description":"A miserly old man&apos;s wife and son live it up at home while he faces imminent death from a brain tumor. It&apos;s all fun and games until he experiences a miraculous recovery.\r\n\r\n <a href=\"\nhttp://www.4kw.in/4719.html\" rel=\"nofollow\" target=\"_NEW\">\nhttp://www.4kw.in/4719.html</a>\r\n <a href=\"\nhttp://www.4kw.in/4720.html\" rel=\"nofollow\" target=\"_NEW\">\nhttp://www.4kw.in/4720.html</a>\r\n <a href=\"\nhttp://www.4kw.in/4721.html\" rel=\"nofollow\" target=\"_NEW\">\nhttp://www.4kw.in/4721.html</a>\r\n <a href=\"\nhttp://www.4kw.in/4722.html\" rel=\"nofollow\" target=\"_NEW\">\nhttp://www.4kw.in/4722.html</a>\r\n\r\n\r\nFormat                                   : MPEG-4\r\nFormat profile                           : Base Media\r\nCodec ID                                 : isom (isom/iso2/avc1/mp41)\r\nFile size                                : 530 MiB\r\nDuration                                 : 1 h 40 min\r\nOverall bit rate                         : 736 kb/s\r\nWriting application                      : Lavf57.71.100\r\n\r\nID                                       : 1\r\nFormat                                   : AVC\r\nFormat/Info                              : Advanced Video Codec\r\nFormat profile                           : <a href=\"/cdn-cgi/l/email-protection\" class=\"__cf_email__\" data-cfemail=\"6c24050b042c205f425d\">[email&#xA0;protected]</a>\r\nFormat settings                          : CABAC / 5 Ref Frames\r\nFormat settings, CABAC                   : Yes\r\nFormat settings, RefFrames               : 5 frames\r\nCodec ID                                 : avc1\r\nCodec ID/Info                            : Advanced Video Coding\r\nDuration                                 : 1 h 40 min\r\nSource duration                          : 30 s 412 ms\r\nBit rate                                 : 640 kb/s\r\nWidth                                    : 720 pixels\r\nHeight                                   : 400 pixels\r\nDisplay aspect ratio                     : 16:9\r\nFrame rate mode                          : Constant\r\nFrame rate                               : 23.976 FPS\r\nColor space                              : YUV\r\nChroma subsampling                       : 4:2:0\r\nBit depth                                : 8 bits\r\nScan type                                : Progressive\r\nBits/(Pixel*Frame)                       : 0.093\r\nStream size                              : 458 MiB (86%)\r\nSource stream size                       : 458 MiB (86%)\r\n\r\nID                                       : 2\r\nFormat                                   : AAC\r\nFormat/Info                              : Advanced Audio Codec\r\nFormat profile                           : LC\r\nCodec ID                                 : mp4a-40-2\r\nDuration                                 : 1 h 40 min\r\nDuration_LastFrame                       : -11 ms\r\nBit rate mode                            : Constant\r\nBit rate                                 : 96.0 kb/s\r\nChannel(s)                               : 2 channels\r\nChannel positions                        : Front: L R\r\nSampling rate                            : 48.0 kHz\r\nFrame rate                               : 46.875 FPS (1024 SPF)\r\nCompression mode                         : Lossy\r\nStream size                              : 69.9 MiB (13%)\r\nTitle                                    : ac3\r\nDefault                                  : Yes\r\nAlternate group                          : 1","last_updated":"2018-01-08T12:03:24.819Z","parsed":{"xt":"urn:btih:ff32309c24db64f0140067c3c19cdbea5cc0b280","dn":"Spent (2017) HDRip 530 MB H264 MPEG-4 AAC Spy1984","tr":["udp://exodus.desync.com:6969","udp://open.demonii.com:1337","udp://tracker.coppersurfer.tk:6969","udp://tracker.leechers-paradise.org:6969","udp://zer0day.ch:1337"],"infoHash":"ff32309c24db64f0140067c3c19cdbea5cc0b280","infoHashBuffer":{"type":"Buffer","data":[255,50,48,156,36,219,100,240,20,0,103,195,193,156,219,234,92,192,178,128]},"name":"Spent (2017) HDRip 530 MB H264 MPEG-4 AAC Spy1984","announce":["udp://exodus.desync.com:6969","udp://open.demonii.com:1337","udp://tracker.coppersurfer.tk:6969","udp://tracker.leechers-paradise.org:6969","udp://zer0day.ch:1337"],"urlList":[]}}